<svg xmlns="http://www.w3.org/2000/svg" width="142.826" height="48.898" viewBox="0 0 142.826 48.898">
  <g id="Group_1" data-name="Group 1" transform="translate(219.09 -781.581)">
    <path id="Path_1" data-name="Path 1" d="M-92.552,797.394l.476.041.047.424.438.071v.869l.5.1v1.366l.468.055v1.365l.482.082v1.86l.469.043v8.1l-.44.064v1.835l-.46.083-.069.418-.434.06v2.319l-.462.078v.914l.43.037.041.458h12.415l.057.467h2.333v.948h-2.3l-.1.5h-7.6l-.054.468h-5.212v1.43l.424.058v.877l.481.091v.41l-.444.053-.039.435H-92.5l-.045-.441-.439-.036-.039-.445h-.92v1.843l-.5.1V830l-.462.046-.04.437h-.911v-1.837l-.5-.107V824.3l-.482-.065v-1.386h-.446l-.071.436h-.869l-.105.5H-99.7v1.384l-.489.1-.039.437h-.914l-.043.467h-.9l-.075.469H-103.5l-.1.5h-1.841l-.058.459H-193.66l-.073-.429h-1.826l-.108-.5h-1.352l-.072-.467h-.869l-.1-.5h-.887l-.055-.468h-.887l-.077-.462-.424-.063-.05-.438h-.891l-.075-.462-.428-.058-.037-.424-.424-.048-.07-.43-.427-.055-.042-.446h-.9l-.065-.461-.438-.049v-.892l-.462-.075-.058-.428-.424-.036-.048-.424-.43-.07-.055-.428-.446-.041v-.9l-.463-.064-.045-.432-.454-.039V817.1l-.467-.058v-.882l-.5-.092v-.895l-.468-.042v-1.377l-.468-.074v-1.827l-.48-.1v-8.086l.448-.044v-1.853l.468-.073v-1.349l.5-.106v-1.358l.468-.065v-.878l.461-.083.068-.419.434-.058v-.883l.461-.077.064-.426.431-.047.039-.453h1.39l.05-.461.435-.042v-.925h-.912l-.048-.485h-12.4l-.076-.483h-1.86v-.946h3.307l.044-.485h7.129l.077-.483h4.736v-.929l-.43-.071v-.868l-.483-.1V787.86h1.365l.092.442h.878c.063.25-.027.656.483.431l.067-.387.427-.068v-3.267l.495-.107v-2.8l.464-.064.047-.448c.108,0,.239-.038.282.008a2.6,2.6,0,0,1,.274.449l.36.052v3.276l.5.091v2.814l.46.041.04.442h.426l.068-.443h.872l.094-.479h1.375l.04.439h.9l.069-.433h1.828l.1-.482h86.236l.057.443h1.839l.092.5h1.374l.043.468h1.376l.075.467h.868l.1.5h.883l.061.468h.882l.079.461.422.066.054.436h.887l.077.462.426.06.04.421.421.05.071.429.428.057.037.424.424.048.07.431.43.055.034.428.427.044.067.434.432.051.034.429.451.049v.913l.462.04.05.422.435.07Zm-107.876,6.234v-1.4l-.468-.048v-3.768l-.5-.1v-2.343l-.433.029-.077.466h-.891l-.049.484h-1.9v.919l-.466.046v.892l-.5.1v.873l-.468.068v.877l-.5.106v1.349l-.468.073v1.854l-.45.042v7.136l.478.089v1.837l.469.064v.88l.5.1v1.348l.468.075v.891l.439.049.062.424.461.076v.885l.435.057.069.43.426.047.034.43.465.051v.91l.455.039.044.431.437.064.041.427.44.038.04.461h.916l.04.462.433.037.056.429.419.069.083.46h.876l.065.433.414.069.085.461h.873l.074.467h1.378l.042.468h.9l.089.5h1.844l.053.447h87.209l.091-.478h1.834l.066-.469h.879l.1-.5h1.348l.074-.47h1.4v-.911l.483-.078v-.9l.436-.039V820.9h-.88l-.107-.5h-12.377l-.073-.467h-1.845v-.433l.419-.068.082-.46h2.8l.065-.468h7.112l.106-.5h4.715v-.9l-.481-.1v-.869l-.434-.068v-1.37h1.382l.073.463h.894l.041.433h.951v-2.822l.481-.044v-3.788l.452-.05.033-.424h.428l.068.418.46.083v2.315l.468.068v3.275l.5.106v.9l.427-.036.084-.467h.876l.064-.431.425-.071v-.9l-.456-.052.027-.417.467-.078V811.35l.445-.054v-7.129l-.48-.1v-1.828l-.468-.073v-1.352l-.5-.107v-.868l-.469-.078v-.886l-.467-.055v-.909l-.457-.039-.041-.433-.464-.061v-.905l-.449-.04-.052-.429-.433-.068-.045-.426-.427-.035-.055-.43-.43-.07-.049-.424-.424-.037-.058-.428-.429-.072-.05-.421-.421-.041-.061-.427-.416-.07-.085-.46h-.874l-.07-.439-.4-.043-.1-.481h-.868l-.076-.468h-.895l-.042-.468h-1.374l-.1-.5h-1.354l-.065-.469h-2.317l-.1-.446h-84.315l-.071.46h-2.311l-.1.455h-1.344l-.084-.439h-.415l-.049.424-.461.071.045.458h.9l.047.467h12.4l.1.5h2.3v.948h-2.338l-.049.468h-7.6l-.1.5h-5.2v1.382l.433.082v1.852h-1.366l-.1-.48h-.869l-.075-.466-.456.046v.9l-.467.049v5.685l-.5.1v.882Z" transform="translate(0)"/>
    <path id="Path_2" data-name="Path 2" d="M101.121,1094.275l-.476.021v.923l-.461.039-.05.424-.428.071-.059.424H91.088l-.069-.422-.426-.064-.048-.431-.452-.04v-1.386l-.467-.057v-.88l-.5-.094v-1.374l-.468-.043v-1.375l-.482-.078v-.9h-.948v.9l-.482.059-.039.435-.443.039v1.876l.442.047.038.438.461.04v.912l.456.047v1.856l-.425.068-.059.423H85.814l-.072-.444h-.911v-1.4l-.462-.076-.065-.424-.435-.053v-.9H78.6v.864l-.483.1-.044.4-.438.07v.87l-.48.1-.04.406-.435.064-.047.427H75.261l-.068-.43H73.832l-.091.432h-1.85l-.045-.441-.431-.035-.048-.424-.437-.071v-.869l-.5-.1v-.884l-.461-.058-.044-.431H65.19l-.07.428-.426.059-.041.432-.458.039v.909l-.467.053v.888l-.46.076-.065.424H61.362l-.073-.417-.422-.068v-1.357l.45-.089v-.888l.468-.053v-.888l.461-.076.063-.424.427-.049v-.9l-.426-.071-.062-.424-.439-.048v-.892l-.467-.076v-.867l-.482-.1v-1.369h.879l.1-.484h.887l.054.444h.911v.94l.485.064v.88l.461.081.067.422.427.054.041.433h4.744l.065-.432.431-.053.035-.434.462-.042v-1.394l.461-.041.039-.457h.912c.02-.285,0-.615.459-.45l.085.446h1.375l.04.455H74.7l.087-.457h.895l.037-.43c.433-.049.433-.049.489.409h.871l.1.484.439.042v.913l.467.042v.9l.46.074.059.423h5.2l.076-.417.425-.069v-.869l.5-.1v-.88l.462-.063.047-.44h.894l.073-.46h.425l.042.443h3.78l.062.461.44.049v.891l.468.075v1.348l.5.105v.877l.468.068v1.354l.5.1v.888h4.786v-.886l.469-.076v-.868l.5-.105v-1.357l.468-.068v-1.353l.5-.1v-.894l.462-.042.039-.44h2.349v.88l.484.1v.4l-.443.067v1.353l-.5.1v1.373l-.468.045v1.374l-.5.078v1.412Zm-27.814-3.855-.453.05-.061.423-.426.071v.9l.469.042v.912l.45.05.035.435.462.04v.916l.462.04.035.432h.466v-.888l.5-.095v-.875l.432-.062.07-.416.416-.076v-1.37l-.458-.061v-.882l-.5-.1v-.869l-.429-.069-.071-.418h-.929v.9l-.468.076Z" transform="translate(-253.102 -275.769)"/>
    <path id="Path_3" data-name="Path 3" d="M64.269,931.115v.87l-.481.1v.887l-.462.054-.042.447h-.9l-.071.46h-.881l-.075-.414-.42-.067v-2.317l.448-.092v-1.366l.467-.054v-.883l.5-.093v-1.374l.468-.042v-.9l.469-.075v-1.347l.5-.1v-.882l.468-.061v-.879l.5-.094V922h8.585l.072.416.422.067.054.428.447.041v1.383l.466.065v.874l.5.1v1.373l.467.043v.894l.468.075v.869l.5.107v1.355l.468.07v1.354l.46.085.07.421.433.025v-6.66l.458-.084.069-.425h.869l.1-.481h.886l.054.439.425.037.05.423.428.07.059.424H86.28l.076-.418.417-.069.06-.433h.879l.089-.478h.865l.1.454h.875l.068.463.432.05.035.432.427.043.066.433.426.051v7.146h-.911l-.045.474h-.9l-.073-.449h-.911v-5.717l-.461-.076-.062-.422h-.885l-.09.452H81.549v.9l-.5.1v4.726h-.9l-.1.484h-.884l-.058-.443h-.881l-.08-.467-.418-.03-.063.466h-.881l-.087.478h-.865l-.1-.455h-.9v-.943l-.484-.044v-1.384Zm8.611-2.447v-1.385l-.479-.093v-.874l-.431-.062L71.9,925.8H70.045L70,925.357l-.423-.061-.071-.427H66.681l-.043.435-.461.05v1.368l-.447.091v1.855Z" transform="translate(-253.173 -126.954)"/>
    <path id="Path_4" data-name="Path 4" d="M711.857,931.952v-5.27h-.94v-1.889l.425-.069.058-.427.422-.038.05-.422.437-.068v-1.35l.484-.1.037-.418H714.7c.013.15.025.285.039.442l.46.041v1.873h6.176l.1.483h1.372c.018-.138.035-.272.057-.438l.428-.043.042-.418.438-.069v-1.35l.486-.1.037-.417h1.873l.039.443.457.04v1.871h6.177l.1.482.4.043.068.433.445.054c0,.1.038.233-.008.276a2.719,2.719,0,0,1-.46.286v.828h-6.194l-.08.46-.422.067v4.272H733.4v.946c.3.026.636,0,.468.466l-.408.069-.068.423-.428.054-.041.432h-7.617c-.019-.138-.038-.273-.061-.441h-.877l-.083-.46-.426-.069V932l-.5-.1v-5.2h-.9l-.1-.465c-.392-.154-.484.048-.448.428h-6.207l-.042.47-.443.04v4.288h6.68v.924l.468.077c.007.125.014.258.023.421l-.448.042-.05.422-.428.07-.059.424h-7.6l-.083-.457h-.9c-.014-.166-.026-.3-.039-.46l-.458-.039v-.912l-.49-.033Z" transform="translate(-840.818 -126.859)"/>
    <path id="Path_5" data-name="Path 5" d="M594.3,931.953v.449l-.473.072v.915h-.919l-.074.462H581.861l-.037-.422-.422-.051-.071-.427-.423-.06v-1.365l.419-.069.068-.431h4.225l.1-.482.421-.038v-6.224h-3.347l.014.014-.02-.451-.441-.065v-.884l.42-.071.065-.424.43-.05.039-.436h5.228l.044.439.452.042v8.1l.46.063.051.439h4.271v.973h.51Z" transform="translate(-723.276 -126.874)"/>
    <path id="Path_6" data-name="Path 6" d="M480.529,1072.05h.451l.071-.458.43-.051.04-.45h4.262v-6.222l-.429-.038-.041-.459h-2.824V1062.5l.411-.076.067-.419h5.709v8.559l.461.076.066.447h4.274v.922l.46.069v.882l-.417.074-.068.421-.427.054-.041.433H481.528l-.056-.437-.426-.042-.045-.419-.457-.073c0-.3,0-.619,0-.934Z" transform="translate(-632.525 -253.53)"/>
    <path id="Path_7" data-name="Path 7" d="M386.559,933.415l.044-.46.442-.051.035-.435.462-.042V922.4l.46-.041.04-.44h2.342v12.4l-.425.09-.044.4-.431.069-.054.43-.434.035-.04.444h-7.627l-.039-.444-.442-.039v-1.393l.44-.041.042-.453Z" transform="translate(-542.402 -126.88)"/>
    <path id="Path_8" data-name="Path 8" d="M501.412,946.594v.933l.456.069v1.841l-.415.074-.069.428h-1.349l-.1.479-.4.041-.071.456h-5.227v3.8l-.483.078v.91h-.921l-.076.464h-.879l-.09-.426-.4-.043-.068-.43-.425-.055v-7.6l.422-.069.066-.431h.871l.094-.48h.9l.038.443.439.037.042.426.434.065.049.427H498.5l.069-.424.424-.065.053-.436h.888l.078-.488h1.413Z" transform="translate(-641.896 -149.188)"/>
  </g>
</svg>
