<svg xmlns="http://www.w3.org/2000/svg" width="95.768" height="732.872" viewBox="0 0 95.768 732.872">
  <g id="Group_27" data-name="Group 27" transform="translate(-15.528 -794.128)">
    <text id="About_Me" data-name="About Me" transform="translate(75 1527) rotate(-90)" font-size="38" font-family="MonumentExtended-Regular, Monument"><tspan x="0" y="0">About Me</tspan></text>
    <g id="Group_6" data-name="Group 6" transform="translate(-518.581 1388.501) rotate(-90)">
      <path id="Path_9" data-name="Path 9" d="M495.429,585.786c-6.556-1.3-68.9-3.844-68.9-3.844v-2.352s62.348-2.549,68.9-3.85a1.074,1.074,0,0,0,.731-1.566l-6.369-11.609,1.723-1.724L503.13,567.2a1.073,1.073,0,0,0,1.564-.731c1.3-6.538,3.847-32.365,3.847-32.365H510.9s2.541,25.794,3.842,32.365a1.074,1.074,0,0,0,1.566.731l11.637-6.379,1.716,1.717-6.382,11.63a1.072,1.072,0,0,0,.73,1.566c6.527,1.3,70.566,3.891,70.366,3.845v2.361c.133.151-63.816,2.546-70.364,3.844a1.073,1.073,0,0,0-.73,1.566l6.371,11.61-1.724,1.726-11.615-6.365a1.072,1.072,0,0,0-1.564.73c-1.3,6.539-3.848,34.822-3.848,34.822H508.54S506,601.628,504.7,595.058a1.072,1.072,0,0,0-1.564-.731l-11.658,6.39-1.705-1.705,6.39-11.661A1.073,1.073,0,0,0,495.429,585.786Z" transform="translate(0 0)" fill="#1a1818"/>
    </g>
  </g>
</svg>
