<svg xmlns="http://www.w3.org/2000/svg" width="684.187" height="391.623" viewBox="0 0 684.187 391.623">
  <path id="Path_9" data-name="Path 9" d="M706.137,743.814c-26.6-5.273-279.613-15.6-279.613-15.6v-9.544s253.005-10.343,279.613-15.622a4.357,4.357,0,0,0,2.967-6.355l-25.845-47.107,6.991-7,47.138,25.821a4.354,4.354,0,0,0,6.349-2.967c5.262-26.53,15.611-131.334,15.611-131.334h9.562S779.222,638.781,784.5,665.443a4.358,4.358,0,0,0,6.355,2.967l47.222-25.887,6.961,6.967-25.9,47.192a4.351,4.351,0,0,0,2.961,6.354c26.488,5.255,286.352,15.791,285.541,15.6v9.58c.541.612-258.964,10.33-285.535,15.6a4.354,4.354,0,0,0-2.961,6.354L845,797.289l-7,7-47.132-25.827a4.351,4.351,0,0,0-6.348,2.961c-5.268,26.536-15.617,141.3-15.617,141.3l-9.562-.006S749.034,808.1,743.749,781.438a4.35,4.35,0,0,0-6.348-2.967L690.094,804.4l-6.919-6.919L709.1,750.163A4.354,4.354,0,0,0,706.137,743.814Z" transform="translate(-425.024 -532.609)" fill="none" stroke="#dd5d4d" stroke-width="3"/>
</svg>
