<svg xmlns="http://www.w3.org/2000/svg" width="113.42" height="64.713" viewBox="0 0 113.42 64.713">
  <g id="Group_10" data-name="Group 10" transform="translate(-426.524 -534.109)">
    <path id="Path_9" data-name="Path 9" d="M473.085,569.029c-4.43-.878-46.561-2.6-46.561-2.6v-1.589s42.13-1.722,46.561-2.6a.725.725,0,0,0,.494-1.058l-4.3-7.844,1.164-1.165,7.849,4.3a.725.725,0,0,0,1.057-.494c.876-4.418,2.6-21.87,2.6-21.87h1.592s1.717,17.43,2.6,21.87a.726.726,0,0,0,1.058.494l7.863-4.311,1.159,1.16-4.313,7.858a.725.725,0,0,0,.493,1.058c4.411.875,47.683,2.629,47.548,2.6v1.6c.09.1-43.122,1.72-47.547,2.6a.725.725,0,0,0-.493,1.058l4.3,7.845-1.165,1.166-7.848-4.3a.725.725,0,0,0-1.057.493c-.877,4.419-2.6,23.53-2.6,23.53h-1.592s-1.716-19.087-2.6-23.527a.724.724,0,0,0-1.057-.494l-7.877,4.318-1.152-1.152,4.318-7.879A.725.725,0,0,0,473.085,569.029Z" transform="translate(0 0)" fill="#fff"/>
  </g>
</svg>
